<svg xmlns="http://www.w3.org/2000/svg" aria-hidden="true" style="position:absolute;width:0;height:0;overflow:hidden">
  <defs>
    <symbol id="ph-planet" viewBox="0 0 256 256">
      <path fill="currentColor" d="M240.5 71.2c-3.1-5.7-9.9-12.4-25.6-12.4c-13.9 0-31 5.2-48.9 14.3c-7.4-3-15.3-5.1-23.7-5.9V48a16 16 0 0 0-32 0v19.1C64.3 73.1 40 102.3 40 136c0 37.6 30.6 68.2 68.2 68.2c33.7 0 62.9-24.3 68.9-60.3c18.3-11.4 35.1-24.6 46.3-37.5c10.4-12 19-27.1 13.1-35.2Zm-26.4 5.9c4 0 5.8 1 6.3 1.7c1 1.9-2.6 10.6-16.1 24.7c-9.7 10.1-23.5 21.1-38.7 31.3c.1-1.6.2-3.2.2-4.8c0-17.5-7.3-33.4-19-44.8c19-8.9 42-16.1 47.3-16.1ZM124.2 80c26.2 0 47.5 21.3 47.5 47.5s-21.3 47.5-47.5 47.5S76.7 153.7 76.7 127.5S98 80 124.2 80Zm7.4-32a4.2 4.2 0 0 1 4.2 4.2v12.9c-3.1-.4-6.2-.6-9.4-.6c-3.2 0-6.3.2-9.4.6V52.2a4.2 4.2 0 0 1 4.2-4.2Zm-7.4 136.2c-26.2 0-47.5-21.3-47.5-47.5c0-23.6 17.5-43.2 40.3-47V88c-29 3.9-51.4 28.7-51.4 59c0 32.8 26.6 59.5 59.5 59.5c28.1 0 51.5-19.7 58-46c-7.6 4.8-15.7 9.5-24.1 13.8c-8.2 14.1-23.4 23.5-40.4 23.5Z" />
    </symbol>
    <symbol id="ph-sparkle" viewBox="0 0 256 256">
      <path fill="currentColor" d="M244.4 122.5A12.1 12.1 0 0 0 236 114c-25.9-5.8-46.2-26.1-52-52a12 12 0 0 0-23.8 0c-5.8 25.9-26.1 46.2-52 52a12 12 0 0 0 0 23.8c25.9 5.8 46.2 26.1 52 52a12 12 0 0 0 23.8 0c5.8-25.9 26.1-46.2 52-52a12.1 12.1 0 0 0 8.4-14.6Zm-74 12.4a77.8 77.8 0 0 1-34.9-34.9a77.8 77.8 0 0 1 34.9-34.9a77.8 77.8 0 0 1 34.9 34.9a77.8 77.8 0 0 1-34.9 34.9ZM84 72a8 8 0 1 1 16 0a44 44 0 0 0 44 44a8 8 0 0 1 0 16a44 44 0 0 0-44 44a8 8 0 0 1-16 0a44 44 0 0 0-44-44a8 8 0 0 1 0-16a44 44 0 0 0 44-44Zm-36 64a60.1 60.1 0 0 1 52 52a60.1 60.1 0 0 1-52-52Z" />
    </symbol>
    <symbol id="ph-rows" viewBox="0 0 256 256">
      <path fill="currentColor" d="M224 88H32a16 16 0 0 1 0-32h192a16 16 0 0 1 0 32Zm0 56H32a16 16 0 0 1 0-32h192a16 16 0 0 1 0 32Zm0 56H32a16 16 0 0 1 0-32h192a16 16 0 0 1 0 32Z" />
    </symbol>
  </defs>
</svg>
